# xmcd
#
# Track frame offsets:
#        150
#        12715
#        25892
#        40770
#        55970
#        70017
#        84027
#        103850
#        119192
#        132615
#        151080
#        172305
#
# Disc length: 2493 seconds
#
# Revision: 0
# Processed by: cddbd v1.5.1PL0 Copyright (c) Steve Scherf et al.
# Submitted via: ExactAudioCopy v0.95b1
#
DISCID=a609bb0c
DTITLE=DAMNDOG - A THORN IN MY TONGUE
DYEAR=2005
DGENRE=Punk Rock
TTITLE0=EVEN IF
TTITLE1=BIG BOY
TTITLE2=TV MAN
TTITLE3=NOTICE
TTITLE4=HEIKI
TTITLE5=DEBBIE
TTITLE6=ROOT OUT
TTITLE7=NOT A DOLL
TTITLE8=LIKE A KNIFE
TTITLE9=WINTER LAND
TTITLE10=NEVER KNOW
TTITLE11=EPOCH
EXTD=
EXTT0=
EXTT1=
EXTT2=
EXTT3=
EXTT4=
EXTT5=
EXTT6=
EXTT7=
EXTT8=
EXTT9=
EXTT10=
EXTT11=
PLAYORDER=
